HIERARCHY
ROOT Hips
{
	OFFSET 0.000000 100.481300 0.000000
	CHANNELS 6 Xposition Yposition Zposition Xrotation Yrotation Zrotation
	JOINT Spine
	{
		OFFSET -0.279200 12.230698 -2.892100
		CHANNELS 3 Xrotation Yrotation Zrotation
		JOINT Spine1
		{
			OFFSET -0.325700 14.269203 -3.374200
			CHANNELS 3 Xrotation Yrotation Zrotation
			JOINT Spine2
			{
				OFFSET -0.372300 16.307602 -0.352600
				CHANNELS 3 Xrotation Yrotation Zrotation
				JOINT Neck
				{
					OFFSET -0.418800 17.814194 8.416900
					CHANNELS 3 Xrotation Yrotation Zrotation
					JOINT Head
					{
						OFFSET 0.000000 7.031097 3.806800
						CHANNELS 3 Xrotation Yrotation Zrotation
						JOINT HeadTop_End
						{
							OFFSET 0.000000 24.646606 12.978600
							CHANNELS 3 Xrotation Yrotation Zrotation
							End Site
							{
								OFFSET 0.000000 27.854965 0.000000
							}
						}
					}
				}
				JOINT LeftShoulder
				{
					OFFSET 16.952999 14.495407 -7.737500
					CHANNELS 3 Xrotation Yrotation Zrotation
					JOINT LeftArm
					{
						OFFSET 9.308998 -2.777710 0.208600
						CHANNELS 3 Xrotation Yrotation Zrotation
						JOINT LeftForeArm
						{
							OFFSET 29.972298 0.000000 0.000000
							CHANNELS 3 Xrotation Yrotation Zrotation
							JOINT LeftHand
							{
								OFFSET 26.026505 0.000000 0.000000
								CHANNELS 3 Xrotation Yrotation Zrotation
								JOINT LeftHandThumb1
								{
									OFFSET 12.240501 -7.147949 9.207150
									CHANNELS 3 Xrotation Yrotation Zrotation
									JOINT LeftHandThumb2
									{
										OFFSET 4.138618 -2.389435 2.389433
										CHANNELS 3 Xrotation Yrotation Zrotation
										JOINT LeftHandThumb3
										{
											OFFSET 2.726913 -1.574387 1.574386
											CHANNELS 3 Xrotation Yrotation Zrotation
											JOINT LeftHandThumb4
											{
												OFFSET 3.941010 -2.275345 2.275342
												CHANNELS 3 Xrotation Yrotation Zrotation
												End Site
												{
													OFFSET -0.005798 5.087799 0.009903
												}
											}
										}
									}
								}
								JOINT LeftHandIndex1
								{
									OFFSET 24.424698 -1.985611 5.953459
									CHANNELS 3 Xrotation Yrotation Zrotation
									JOINT LeftHandIndex2
									{
										OFFSET 6.426697 0.000000 0.000000
										CHANNELS 3 Xrotation Yrotation Zrotation
										JOINT LeftHandIndex3
										{
											OFFSET 5.337898 0.000000 0.000000
											CHANNELS 3 Xrotation Yrotation Zrotation
											JOINT LeftHandIndex4
											{
												OFFSET 4.409401 0.000000 0.000000
												CHANNELS 3 Xrotation Yrotation Zrotation
												End Site
												{
													OFFSET 0.000000 4.409363 0.014373
												}
											}
										}
									}
								}
								JOINT LeftHandMiddle1
								{
									OFFSET 23.810104 0.000000 0.000000
									CHANNELS 3 Xrotation Yrotation Zrotation
									JOINT LeftHandMiddle2
									{
										OFFSET 7.176498 0.000000 0.000000
										CHANNELS 3 Xrotation Yrotation Zrotation
										JOINT LeftHandMiddle3
										{
											OFFSET 6.774902 0.000000 0.000000
											CHANNELS 3 Xrotation Yrotation Zrotation
											JOINT LeftHandMiddle4
											{
												OFFSET 5.403328 0.000000 0.000000
												CHANNELS 3 Xrotation Yrotation Zrotation
												End Site
												{
													OFFSET -0.027702 5.403244 0.017414
												}
											}
										}
									}
								}
								JOINT LeftHandRing1
								{
									OFFSET 22.908401 -0.839279 -6.020567
									CHANNELS 3 Xrotation Yrotation Zrotation
									JOINT LeftHandRing2
									{
										OFFSET 6.337502 0.000000 0.000000
										CHANNELS 3 Xrotation Yrotation Zrotation
										JOINT LeftHandRing3
										{
											OFFSET 5.779297 0.000000 0.000000
											CHANNELS 3 Xrotation Yrotation Zrotation
											JOINT LeftHandRing4
											{
												OFFSET 4.965698 0.000000 0.000000
												CHANNELS 3 Xrotation Yrotation Zrotation
												End Site
												{
													OFFSET 0.000000 4.965668 0.016186
												}
											}
										}
									}
								}
								JOINT LeftHandPinky1
								{
									OFFSET 20.037003 -1.530319 -10.950146
									CHANNELS 3 Xrotation Yrotation Zrotation
									JOINT LeftHandPinky2
									{
										OFFSET 5.254700 0.000000 0.000000
										CHANNELS 3 Xrotation Yrotation Zrotation
										JOINT LeftHandPinky3
										{
											OFFSET 4.810204 0.000000 0.000000
											CHANNELS 3 Xrotation Yrotation Zrotation
											JOINT LeftHandPinky4
											{
												OFFSET 3.647202 0.000000 0.000000
												CHANNELS 3 Xrotation Yrotation Zrotation
												End Site
												{
													OFFSET 0.000000 3.647186 0.011889
												}
											}
										}
									}
								}
							}
						}
					}
				}
				JOINT RightShoulder
				{
					OFFSET -15.141001 14.495407 -7.737500
					CHANNELS 3 Xrotation Yrotation Zrotation
					JOINT RightArm
					{
						OFFSET -9.308998 -2.777710 0.208500
						CHANNELS 3 Xrotation Yrotation Zrotation
						JOINT RightForeArm
						{
							OFFSET -29.972300 0.000000 0.000000
							CHANNELS 3 Xrotation Yrotation Zrotation
							JOINT RightHand
							{
								OFFSET -26.026505 0.000000 0.000000
								CHANNELS 3 Xrotation Yrotation Zrotation
								JOINT RightHandThumb1
								{
									OFFSET -12.240601 -7.148026 9.207092
									CHANNELS 3 Xrotation Yrotation Zrotation
									JOINT RightHandThumb2
									{
										OFFSET -4.138618 -2.389435 2.389433
										CHANNELS 3 Xrotation Yrotation Zrotation
										JOINT RightHandThumb3
										{
											OFFSET -2.726974 -1.574417 1.574421
											CHANNELS 3 Xrotation Yrotation Zrotation
											JOINT RightHandThumb4
											{
												OFFSET -3.941010 -2.275345 2.275343
												CHANNELS 3 Xrotation Yrotation Zrotation
												End Site
												{
													OFFSET 0.005814 5.087799 0.009927
												}
											}
										}
									}
								}
								JOINT RightHandIndex1
								{
									OFFSET -24.424698 -1.985657 5.953444
									CHANNELS 3 Xrotation Yrotation Zrotation
									JOINT RightHandIndex2
									{
										OFFSET -6.426697 0.000000 0.000000
										CHANNELS 3 Xrotation Yrotation Zrotation
										JOINT RightHandIndex3
										{
											OFFSET -5.337898 0.000000 0.000000
											CHANNELS 3 Xrotation Yrotation Zrotation
											JOINT RightHandIndex4
											{
												OFFSET -4.409401 0.000000 0.000000
												CHANNELS 3 Xrotation Yrotation Zrotation
												End Site
												{
													OFFSET 0.000000 4.409363 0.014408
												}
											}
										}
									}
								}
								JOINT RightHandMiddle1
								{
									OFFSET -23.810097 0.000000 0.000000
									CHANNELS 3 Xrotation Yrotation Zrotation
									JOINT RightHandMiddle2
									{
										OFFSET -7.176498 0.000000 0.000000
										CHANNELS 3 Xrotation Yrotation Zrotation
										JOINT RightHandMiddle3
										{
											OFFSET -6.774902 0.000000 0.000000
											CHANNELS 3 Xrotation Yrotation Zrotation
											JOINT RightHandMiddle4
											{
												OFFSET -5.403328 0.000000 0.000000
												CHANNELS 3 Xrotation Yrotation Zrotation
												End Site
												{
													OFFSET 0.027702 5.403244 0.017457
												}
											}
										}
									}
								}
								JOINT RightHandRing1
								{
									OFFSET -22.908302 -0.839325 -6.020576
									CHANNELS 3 Xrotation Yrotation Zrotation
									JOINT RightHandRing2
									{
										OFFSET -6.337502 0.000000 0.000000
										CHANNELS 3 Xrotation Yrotation Zrotation
										JOINT RightHandRing3
										{
											OFFSET -5.779297 0.000000 0.000000
											CHANNELS 3 Xrotation Yrotation Zrotation
											JOINT RightHandRing4
											{
												OFFSET -4.965698 0.000000 0.000000
												CHANNELS 3 Xrotation Yrotation Zrotation
												End Site
												{
													OFFSET 0.000000 4.965668 0.016226
												}
											}
										}
									}
								}
								JOINT RightHandPinky1
								{
									OFFSET -20.037003 -1.530334 -10.950259
									CHANNELS 3 Xrotation Yrotation Zrotation
									JOINT RightHandPinky2
									{
										OFFSET -5.254700 0.000000 0.000000
										CHANNELS 3 Xrotation Yrotation Zrotation
										JOINT RightHandPinky3
										{
											OFFSET -4.810204 0.000000 0.000000
											CHANNELS 3 Xrotation Yrotation Zrotation
											JOINT RightHandPinky4
											{
												OFFSET -3.647202 0.000000 0.000000
												CHANNELS 3 Xrotation Yrotation Zrotation
												End Site
												{
													OFFSET 0.000000 3.647186 0.011917
												}
											}
										}
									}
								}
							}
						}
					}
				}
			}
		}
	}
	JOINT LeftUpLeg
	{
		OFFSET 15.427100 -6.655098 0.678600
		CHANNELS 3 Xrotation Yrotation Zrotation
		JOINT LeftLeg
		{
			OFFSET 4.081073 -39.591068 13.024000
			CHANNELS 3 Xrotation Yrotation Zrotation
			JOINT LeftFoot
			{
				OFFSET -4.081074 -37.707932 -15.979700
				CHANNELS 3 Xrotation Yrotation Zrotation
				JOINT LeftToeBase
				{
					OFFSET 5.346399 -15.068900 20.645000
					CHANNELS 3 Xrotation Yrotation Zrotation
					JOINT LeftToe_End
					{
						OFFSET 2.754700 0.931300 11.300900
						CHANNELS 3 Xrotation Yrotation Zrotation
						End Site
						{
							OFFSET 0.000000 11.669021 0.000000
						}
					}
				}
			}
		}
	}
	JOINT RightUpLeg
	{
		OFFSET -15.569500 -6.655098 0.678600
		CHANNELS 3 Xrotation Yrotation Zrotation
		JOINT RightLeg
		{
			OFFSET -4.081825 -39.591045 13.023800
			CHANNELS 3 Xrotation Yrotation Zrotation
			JOINT RightFoot
			{
				OFFSET 4.081824 -37.707954 -15.979600
				CHANNELS 3 Xrotation Yrotation Zrotation
				JOINT RightToeBase
				{
					OFFSET -5.346400 -15.068900 20.645000
					CHANNELS 3 Xrotation Yrotation Zrotation
					JOINT RightToe_End
					{
						OFFSET -2.754700 0.931300 11.300900
						CHANNELS 3 Xrotation Yrotation Zrotation
						End Site
						{
							OFFSET 0.000000 11.669021 0.000000
						}
					}
				}
			}
		}
	}
}
MOTION
Frames: 4
Frame Time: 0.033333
13.784277 74.594101 -9.721722 159.260122 27.626375 -161.943416 -9.015634 1.958304 -3.308415 -13.547288 4.069329 -6.997901 -13.550131 4.299734 -6.902087 8.993556 -1.196129 -4.506303 10.785964 -13.707484 6.121451 0.000000 0.000001 -0.000000 2.339123 27.380809 -4.582329 -37.162861 30.068976 -39.725439 -0.000012 -127.569957 -0.000027 47.230362 -8.559249 59.351147 0.519838 9.781207 16.737725 6.627739 12.392770 2.622525 -9.351952 -5.986406 12.176745 0.000002 0.000000 0.000004 9.128234 10.238899 -65.396862 3.597389 5.401005 -67.310018 3.509444 5.363555 -66.372445 -0.000000 -0.000001 0.000001 8.091810 8.871255 -76.688722 3.796276 5.479572 -69.407706 5.030634 5.793452 -81.925688 -0.000002 -0.000001 0.000000 10.745440 9.134256 -80.077794 2.849900 5.025055 -59.097242 3.717483 5.449449 -68.580229 0.000002 -0.000000 -0.000000 18.265773 22.313125 -65.033940 4.580074 5.711825 -77.432707 4.374962 5.662430 -75.363385 0.000002 -0.000000 -0.000000 0.429267 -14.992392 -0.429863 -14.119693 -15.857536 57.202534 -0.000053 125.081855 0.000049 53.726077 19.000490 -58.672377 0.067278 3.496542 -10.981691 9.461223 -21.323741 -3.590051 1.857146 -22.685018 -21.345760 0.000000 -0.000001 0.000000 1.794940 -3.751348 67.694107 2.206134 -3.961216 58.216475 2.527584 -4.142724 62.763332 -0.000001 0.000001 0.000000 0.978834 -6.106967 75.060740 2.693297 -4.223671 65.034773 3.648422 -4.546867 77.477288 0.000001 -0.000001 0.000001 2.112489 -7.149255 94.486911 2.580840 -4.169630 63.498008 3.049383 -4.371422 69.783783 -0.000002 0.000001 -0.000002 0.917078 -24.556875 109.381156 3.705483 -4.559127 78.195878 3.734014 -4.564968 78.554976 -0.000002 -0.000000 0.000001 -39.411544 -5.280759 -7.527278 61.425742 2.829734 -0.177430 -37.783951 -1.672497 8.039147 -6.176375 -0.000001 -0.000003 0.000000 -0.000000 -0.000001 -47.370914 8.985288 -3.977714 69.064359 6.131124 -8.079757 -32.468291 -1.931287 2.793543 -11.040207 -0.000001 0.000000 0.000000 0.000000 0.000000 
13.032631 75.373474 -9.959124 158.627537 18.965658 -165.337979 -9.778075 2.197701 -2.179254 -14.591142 4.380217 -5.428189 -14.611793 4.603496 -5.349478 8.901762 -1.957557 -6.435551 13.853224 -17.297922 -3.862799 -0.000000 0.000000 -0.000001 2.230160 27.121896 -4.516349 -32.269864 25.305569 -45.172887 -0.000017 -127.984194 -0.000027 48.169581 -8.502443 58.014466 -0.016629 8.842422 17.471665 6.539469 12.045810 2.623658 -8.802013 -4.936456 12.765693 0.000000 -0.000000 0.000001 9.639047 9.484318 -74.175158 3.641795 5.419299 -67.781083 3.528002 5.371602 -66.570890 -0.000001 0.000000 -0.000002 8.348004 8.615516 -81.701213 3.855728 5.501429 -70.029007 5.098766 5.802661 -82.600121 -0.000001 0.000001 0.000003 11.571919 8.597741 -86.211139 3.055927 5.142307 -61.422006 4.061419 5.571541 -72.160764 0.000001 -0.000000 0.000000 17.848850 19.847172 -80.115312 4.467987 5.685796 -76.304135 4.240099 5.625670 -73.992095 -0.000001 0.000000 -0.000001 0.355116 -14.071436 -0.781933 -18.748318 -39.773684 53.446698 -0.000058 122.420745 0.000062 41.742605 15.217745 -62.722857 0.540166 2.525872 -11.247717 7.809718 -17.270839 -3.167014 1.973960 -23.204099 -21.641229 -0.000001 -0.000000 0.000000 1.957957 -3.820444 71.163024 1.990789 -3.819701 55.043378 2.320746 -4.029804 59.861164 -0.000003 0.000001 0.000003 1.040733 -6.318083 79.112298 2.550450 -4.154375 63.079147 3.481944 -4.506769 75.368078 -0.000001 -0.000000 -0.000000 3.502449 -7.102908 96.650093 2.533023 -4.145501 62.838471 2.967963 -4.340655 68.711785 -0.000003 0.000000 -0.000001 0.942635 -24.877518 110.913161 3.542186 -4.522037 76.133277 3.630391 -4.542807 77.249767 0.000002 -0.000001 -0.000001 -43.919318 -6.009215 -8.267020 59.684604 -2.049955 1.122413 -35.354565 -4.280029 9.921074 -3.281543 -0.000005 -0.000002 0.000001 -0.000001 -0.000000 -45.015899 5.239222 -8.768695 65.402285 4.231663 -4.829473 -34.614637 -2.950004 4.452594 -8.809690 -0.000008 0.000001 -0.000000 -0.000001 0.000000 
12.243214 77.061447 -9.808031 157.035570 12.591751 -168.129614 -9.871865 2.498371 -0.760704 -15.337021 4.906086 -3.548937 -15.388886 5.131212 -3.468084 8.522322 -1.993497 -7.171020 11.933477 -16.974101 -9.615369 -0.000000 0.000001 -0.000001 2.189430 27.740784 -4.358135 -27.175048 16.794127 -48.356732 -0.000002 -123.262375 0.000002 43.457396 -13.716489 44.899352 -2.470463 6.983629 20.578872 5.337685 9.438937 2.187843 -9.106655 -5.434840 12.637692 -0.000000 0.000000 0.000006 7.443984 9.187755 -68.939859 3.000735 5.111981 -60.804297 2.968381 5.093801 -60.440542 0.000001 0.000001 -0.000001 7.217990 8.567479 -78.718989 3.323974 5.278928 -64.372682 4.570545 5.709709 -77.337173 -0.000000 0.000000 -0.000001 10.571064 8.295714 -88.916974 3.002370 5.112870 -60.822705 4.008407 5.554281 -71.613967 -0.000000 -0.000000 -0.000003 16.375925 19.525484 -92.498028 4.405643 5.670329 -75.673906 4.139395 5.595939 -72.962171 0.000001 0.000000 -0.000000 0.287754 -13.305377 -1.129915 -18.511653 -44.770346 51.780289 -0.000018 118.955053 0.000030 34.756620 12.388866 -60.847075 1.407899 0.157583 -11.747013 5.842154 -12.476444 -2.514132 1.665653 -22.531372 -21.627826 0.000004 0.000000 -0.000001 2.079689 -4.120897 72.446423 1.788547 -3.670361 51.947861 2.121279 -3.907491 56.979812 -0.000004 0.000001 -0.000000 1.148813 -6.436210 81.091455 2.409023 -4.079665 61.109696 3.318008 -4.460876 73.271305 0.000001 -0.000000 -0.000000 3.975814 -7.088193 98.329514 2.489079 -4.122705 62.229157 2.910530 -4.317897 67.951114 0.000001 -0.000000 -0.000001 1.115089 -25.632595 114.412881 3.516016 -4.515496 75.801303 3.659440 -4.549258 77.616309 0.000000 0.000002 -0.000001 -48.403689 -4.952413 -8.013302 57.228430 -8.185064 1.398177 -29.532409 -4.830146 11.154967 -3.635070 0.000008 0.000003 0.000000 0.000000 -0.000001 -44.219543 2.574459 -10.852545 61.375950 2.675680 -2.639960 -33.439974 -3.887791 5.710500 -9.234965 0.000008 0.000002 0.000000 -0.000001 0.000000 
11.488269 79.133064 -9.255997 156.524631 6.569104 -171.393024 -8.641307 2.492413 0.527661 -14.664162 4.780570 -1.649724 -14.745887 5.000081 -1.529793 7.026012 -1.430264 -6.563123 5.560178 -12.792832 -10.479601 -0.000000 0.000001 0.000000 1.286360 27.493648 -1.966056 -21.253800 10.395842 -51.182282 -0.000064 -118.401411 -0.000058 35.993280 -12.583493 27.021574 -6.271737 6.287473 25.222377 1.959143 2.085284 0.682376 -11.118398 -8.954879 11.078089 0.000001 -0.000000 0.000001 4.787068 8.776816 -53.501654 2.023884 4.429104 -49.099286 2.107187 4.499676 -50.169522 0.000002 0.000001 -0.000001 5.179288 8.315747 -69.298300 2.381249 4.714077 -53.580467 3.585102 5.395879 -67.179459 0.000002 -0.000000 -0.000000 7.753962 8.299030 -86.991072 2.586697 4.858454 -56.042440 3.442939 5.334089 -65.659189 0.000001 0.000000 0.000001 13.949216 21.619161 -96.256729 4.372584 5.661833 -75.339159 4.081688 5.578007 -72.369420 0.000001 -0.000000 -0.000000 0.504542 -12.285399 -0.110440 -19.504713 -39.536915 48.072053 0.000030 116.640384 -0.000024 28.426834 12.068975 -57.469048 2.481806 -2.925828 -12.245219 3.813151 -7.569331 -1.688973 1.019682 -20.897087 -21.332609 -0.000002 0.000001 -0.000003 2.195048 -4.742071 71.882816 1.626473 -3.537769 49.369902 1.958405 -3.796921 54.555842 0.000002 0.000000 -0.000000 1.405816 -6.459061 80.717195 2.274080 -4.002422 59.194791 3.160501 -4.410639 71.235103 0.000001 -0.000002 -0.000001 3.883800 -7.100077 98.273711 2.407854 -4.079015 61.093173 2.830027 -4.284513 66.877811 -0.000000 -0.000001 0.000001 1.166811 -25.966412 115.800434 3.482360 -4.506885 75.373446 3.665328 -4.550543 77.690458 0.000001 0.000000 -0.000003 -52.749725 -3.936846 -5.817783 54.924819 -9.486934 0.198258 -20.259005 -4.247269 6.925117 -9.121346 -0.000002 -0.000000 -0.000000 0.000001 0.000000 -42.624625 -0.099255 -12.205951 57.481929 1.202397 -0.622513 -30.777130 -4.666861 6.605342 -11.498466 -0.000001 0.000001 -0.000000 0.000000 0.000000 
